<svg enable-background="new 0 0 158.9722748 50.1610031" viewBox="0 0 158.9722748 50.1610031" xmlns="http://www.w3.org/2000/svg"><path d="m23.0473366.0754027-23.0473366 9.7698074v28.8218575l23.0473366 10.9912262 23.0472755-10.9912262v-28.8218566z" fill="#3b4444"/><g fill="#0f1822"><path d="m23.0473366.0754027v49.5828934l23.0472755-10.9912262v-28.8218589z"/><path d="m153.9022369 35.4455109c-.0821991-.1937103-.2093201-.3654518-.3762665-.5093498-.1669769-.1452446-.3860779-.2627258-.6484985-.3437347-.4197693-.1329117-1.0066986-.1511955-1.5438843-.1002083-.1970673.0167694-.3895264.0361443-.5721741.0555992l-.5348206.0567703c-.3786316.0424309-.728302.039917-.9617615-.0096474-.1391296-.0290909-.2493134-.0714455-.3423767-.1306458-.0968781-.0617218-.1694946-.139122-.216629-.2310295-.044693-.0908127-.0676727-.1888466-.0676727-.2917404 0-.1402931.0398407-.2733727.118576-.4003334.0762177-.1221809.1960449-.2300224.3532104-.3193321.1464081-.0836029.3350983-.1513634.5589905-.1998329.2239075-.048214.493576-.0725327.8045197-.0725327.4440308 0 .8806763.0472946 1.3005524.1391182.3593292.0774803.7223663.1802063 1.0827789.3073349l.3679657-.909771c-.1416321-.0496368-.2966156-.0967674-.4695282-.1427231-.2479553-.0665817-.5069885-.1246986-.7695618-.1742554-.2623901-.0483856-.5370941-.0894775-.8165894-.1210098-.7997437-.0859528-1.4977875-.045948-2.0784302.117321-.3775024.1065788-.7042999.2552643-.9702148.4427643-.2590485.1852417-.4610443.4053688-.5977478.6557655-.1367493.2444458-.2033386.5191612-.2033386.8142586 0 .2324562.0388184.4538345.1162109.6520767.0774994.1959763.1959839.361763.365387.505661.1741638.1477585.4028473.2651558.6835022.3509445.4223175.1319885 1.0392456.162178 1.6321411.1077538.1945953-.0181961.3786774-.0374794.557724-.0568542l.5153809-.0568542c.575943-.0666656 1.0138397-.020546 1.2509918.1766014.1730042.1428108.2660828.3278847.2660828.5360222 0 .1390343-.0386505.2770653-.1196594.4065361-.0786591.1293983-.2081299.244278-.3859253.3398781-.1645966.0871277-.3811951.158493-.6449432.2140884-.2612915.0533333-.5745087.079998-.9617615.079998-.5589142 0-1.1143799-.0642319-1.6491394-.1900215-.4742126-.1124496-.9181519-.2819252-1.3246307-.5044861l-.5081482.8892288c.1717072.0834351.359314.164444.5576324.2408409.2686157.1027222.556488.1934547.8566132.267334.2975159.0749664.6219788.1366043.9642029.1815529.3364258.0446091.6897125.0664139 1.047699.0664139.5857544 0 1.1059113-.0581131 1.5463409-.1730003.4380035-.1137924.8044434-.2722015 1.0924072-.4717789.2831116-.1937141.4973602-.4259148.6401062-.6896477.1390991-.262558.2116547-.5492668.2116547-.8529968 0-.2358894-.0433807-.4549294-.1269684-.6520767"/><path d="m144.4000092 32.3385735c-.3848267.1875076-.7526245.4125748-1.0973816.6678391l-.2975922.221386v-1.109436h-1.2389374v6.0529213h1.2389374v-3.6985359l.0375519-.0496445c.3132935-.4149284.7222595-.7416382 1.2193756-.969059.4271851-.1971474.9207764-.3339195 1.4664154-.4066238l-.3508301-1.0898952c-.3229523.0954263-.6497497.2223909-.977539.381048"/><path d="m133.3769073 34.6820374.0822601-.243187c.0630646-.1911964.165802-.3750916.3074341-.545578.1366119-.1657867.3096771-.3158073.517746-.4429321.2019958-.1234398.437973-.223732.7053986-.2975311.5214233-.1416321 1.2000885-.1487617 1.7215118-.0060349.2577667.0701027.4816895.1669579.6811829.2914886.1984863.1271248.3678741.2746315.502121.4451981.1343689.1694756.233551.3569794.3001251.5567322l.0785065.2418442zm5.1576844-1.6998787c-.3218689-.3012123-.72229-.5407104-1.1906281-.7149658-.4681549-.1741753-1.0027466-.2637329-1.5921021-.2637329-.5916138 0-1.1237946.0883026-1.5861053.2600441-.4609528.1742554-.8554077.406456-1.1676331.6932487-.3132782.2844467-.5576477.6182785-.7244415.9920311-.1657715.3727531-.2505798.7683868-.2505798 1.1735916 0 .4392433.0883026.8541718.2613983 1.235218.1729126.3788681.4343109.7139626.7767181.9958076.3459015.2831078.7863922.5129585 1.3066254.6787453.523941.1669579 1.1433258.2529144 1.8413391.2529144.2770996 0 .5432587-.0122452.791214-.037487.2420044-.0242348.4829254-.0605431.7151337-.1090126.2298584-.0484695.448822-.1076736.6520844-.1777763.1511841-.0520782.3035583-.1113663.4561157-.1778641l-.4015198-.9037323c-.2940979.0979462-.5990753.1802101-.9112701.2467918-.7488708.1608391-1.5654602.1537094-2.1933899.0217209-.3193359-.0665016-.6062164-.1620979-.8504791-.2866249-.2479706-.1222649-.4610596-.2734604-.6316223-.4488907-.1729126-.181469-.3000488-.3822212-.3762817-.5964775l-.0871124-.2481346h6.166626v-.0132523l.002533-.1923676c0-.465744-.0883026-.9073372-.2589722-1.3150558-.1754152-.4063682-.4246523-.7646979-.7476503-1.0647391"/><path d="m128.5097504 36.1375885-.0423737.0520744c-.2249908.2647362-.5251007.4874649-.8965073.6567688-.3714066.1682205-.7985992.2529182-1.2716293.2529182-.6956635 0-1.2158585-.2093086-1.5473328-.6205482-.3230972-.402935-.4863586-1.0200424-.4863586-1.8354721v-2.5261269h-1.2328949v2.9724998c0 .4985313.068924.9460831.2008286 1.3333359.1356125.3812141.3278275.7028923.5722504.9570656.2457123.2564354.5517044.4549294.909874.587925.5335693.1984901 1.238884.2505684 1.9043045.1584053.211731-.0290146.4173584-.0724487.6097336-.1282158.1935501-.0555992.3762741-.1221848.5384369-.1994972.1644592-.0750542.3146515-.1610069.4513245-.2542534l.2903442-.200676v.5722427c0 .6907387-.2262726 1.2195435-.6715469 1.5751801-.434288.3423958-1.0502472.5154762-1.8281097.5154762-.2201996 0-.450058-.0132484-.6798935-.0424347-.2335587-.0277557-.4596405-.0713577-.675148-.1257858-.2225571-.0569382-.4367218-.1306496-.6399994-.2152596-.1342697-.0581169-.2649841-.1235237-.3860016-.1923714l-.4426956 1.0029373c.3774414.1754303.7900391.3193283 1.2291946.4270058 1.0138397.2481308 2.303566.2517357 3.2231445-.0278435.4549179-.1379433.8431168-.3508606 1.1516953-.6278419.3096924-.2747192.5468445-.6303596.7114563-1.0515709.1645508-.4293518.2468109-.9446602.2468109-1.5315781v-5.5047455h-1.2389069v4.0203859z"/><path d="m119.1791916 36.3286629-.0507431.0532532c-.1186523.1258659-.2601242.245533-.4222183.3507729-.1598358.1028976-.3328323.1924553-.5189896.2685966-.1852493.0750504-.3787155.1343384-.5783691.1766891-.6303558.1319084-1.2352982.060379-1.6490631-.0931664-.2903137-.1051559-.5262833-.2589531-.7053223-.4537506-.1765976-.1959763-.302475-.4331284-.3762665-.706501-.0690155-.2588692-.1052399-.5493507-.1052399-.8613815v-2.9507828h-1.2341385v3.1795387c0 .4837761.0594711.9182396.1779556 1.290905.1125336.362854.2927399.6737976.538353.9231033.2468033.2467117.5672989.4402542.9581604.5722427.6389084.2152672 1.5292358.3144684 2.5432281.0543442.3786926-.0955124.7632751-.2588692 1.1408081-.4862061l.2818451-.1671333v.6909065h1.2388992v-6.0577011h-1.2388992v4.2162706z"/><path d="m109.622673 36.6976357c-.2758865.2275085-.6716156.3412209-1.1771927.3412209h-3.7023163v-2.6677628h3.7023163c.5055771 0 .9024658.1173172 1.1782837.3472519.2843552.2406769.4295197.5735855.4295197.9932938 0 .4185332-.1451645.7501067-.4306107.9859962m-4.8795089-5.516903h3.0477219c.5020523 0 .8929214.0967751 1.1673813.2855377.2916641.205616.4405136.4983654.4405136.8685951 0 .3485107-.1427307.6605453-.421051.9292221l-.0592957.0567741-.08461-.0059547c-.1379471-.0096436-.2771454-.0156784-.421051-.0156784h-3.6696091zm5.6827774 2.5721627-.1900253-.1123657.1404648-.1671333c.3158035-.3749237.4681854-.8009186.4681854-1.3018036 0-.3000412-.060463-.5844002-.1789551-.8444424-.12117-.2552624-.3062439-.4815083-.5517807-.6666698-.2528305-.1923676-.575943-.345911-.9654617-.4574432-.3932114-.1124535-.8664093-.1693897-1.4011002-.1693897h-4.3578949v8.1376209h5.012413c.5396347 0 1.0114136-.059288 1.4023514-.1754303.3871689-.1123734.708931-.2770653.9569016-.4876328.2456131-.2044411.4331207-.4549294.5529633-.747673.1233444-.2951813.1850739-.6315308.1850739-1.0017624 0-.4366493-.0906601-.8334618-.2661667-1.1759338-.1779558-.3386995-.4488069-.6170274-.8069688-.8299409"/><path d="m90.9726944 34.6820374.0809174-.243187c.0640793-.1911964.1670532-.3750916.3085175-.545578.1367798-.1657867.3098526-.3158073.5154724-.4429321.2045288-.1234398.4416809-.223732.707756-.2975311.5214233-.1416321 1.1977386-.1487617 1.7204208-.0060349.258873.0701027.4826889.1669579.6824341.2914886.1983185.1271248.3676376.2746315.500885.4451981.1353455.1694756.2358093.3569794.3010483.5567322l.0788116.2418442zm5.1575012-1.6998787c-.3216858-.3012123-.7222672-.5407104-1.1904526-.7149658-.4681702-.1741753-1.0031052-.2637329-1.5921097-.2637329-.5917053 0-1.124115.0883026-1.586174.2600441-.4610519.1742554-.8554306.406456-1.1675415.6932487-.3133011.2844467-.557663.6182785-.7247925.9920311-.1657791.3727531-.2503891.7683868-.2503891 1.1735916 0 .4392433.0883789.8541718.2613754 1.235218.1730957.3788681.4343033.7139626.7766953.9958076.346077.2831078.7863235.5129585 1.3066635.6787453.5237732.1669579 1.1433105.2529144 1.8414383.2529144.2770538 0 .5433044-.0122452.7912674-.037487.242012-.0242348.4827805-.0605431.7149734-.1090126.2286758-.0484695.4488068-.1076736.652153-.1777763.1512909-.0520782.3036575-.1113663.4548492-.1778641l-.4005051-.9037323c-.2927399.0979462-.5988235.1802101-.9097672.2467918-.7500153.1608391-1.5654526.1537094-2.1958923.0217209-.3181534-.0665016-.6048737-.1620979-.8493118-.2866249-.2480469-.1222649-.4608841-.2734604-.6314392-.4488907-.1731796-.181469-.29879-.3822212-.3762817-.5964775l-.0871201-.2481346h6.1666336v-.0132523l.0024185-.1923676c0-.465744-.0883789-.9073372-.2589417-1.3150558-.1753461-.4063682-.4247434-.7646979-.7477491-1.0647391"/><path d="m86.5131531 32.8080902c-.2820129-.2625618-.628006-.464653-1.0283432-.5989952-.6014328-.2007561-1.3672104-.2565193-2.0762329-.1548004-.2249908.0326233-.4476395.0857887-.6630554.1608353-.2213974.0749741-.4366531.1693954-.656868.2904053-.2213821.1221771-.4477921.2722015-.672699.4452782l-.1367645.1039009-.1138-.124527c-.284111-.307251-.6290131-.5407944-1.0293503-.6933365-.6970215-.266077-1.5464172-.3155537-2.4235611-.0942535-.3616867.0907326-.740387.2564392-1.1275558.4922409l-.2818375.1732521v-.6897278h-1.2389221v6.0529213h1.2389221v-4.218708l.0532379-.0544205c.130661-.1342583.2783356-.2554321.4366531-.3581581.1585693-.10289.3328247-.1924515.5166321-.2661629.1827393-.0725365.3739243-.1294746.5711594-.1706467.5346832-.1088524 1.0561905-.0701942 1.4940109.1017151.2773132.1100197.5166397.2708626.7151337.481514.197319.208046.3522034.4656563.4598846.7657013.1050644.2964325.1596527.6353035.1596527 1.00914v2.7100258h1.2339706v-4.218708l.0399933-.0508156c.1137238-.142807.2503204-.2746315.4088898-.3872528.1572342-.1089325.321846-.1984062.4913177-.2672539.1715775-.0702744.3519592-.1223526.5357819-.1548843.528717-.0944252 1.0102234-.0520782 1.4216309.1137085.2746277.1088448.5129471.2708626.7101822.4803391.194809.205616.3497009.4633102.4585342.7657013.1064224.2977753.1610107.6364822.1610107 1.00914v2.7100258h1.233963v-2.9714929c0-.5310669-.079834-1.0017624-.2358932-1.4009247-.1537857-.3932915-.3738251-.7270432-.6556778-.9907761"/><path d="m71.4043121 35.9535446c-.1125412.2517357-.2794189.4779892-.4960938.6715317-.2139359.1900215-.4778214.343647-.783989.4561005-.3049088.1101875-.6544189.1658669-1.0354767.1658669-.3835602 0-.731987-.0556793-1.034462-.1658669-.3073425-.1124535-.5722427-.2660789-.7863312-.4561005-.2177811-.1935425-.3835678-.419796-.4961014-.6726265-.1162262-.2528267-.1742477-.5238533-.1742477-.8083 0-.2818413.0580215-.5564766.1742477-.8119049.1111908-.2527504.2783203-.4789963.4961014-.6749725.2187805-.1911964.4825974-.3435631.7863312-.4549294.6012573-.2188683 1.4639053-.220211 2.0699387.0011749.3025589.1101913.5662918.262558.783989.4537544.2166748.1959763.384903.4222221.4960938.6763077.1162338.2540932.1744232.5287285.1744232.8105698.0000001.2844467-.0581893.5554733-.1744232.8093948m.4779969-3.0208893c-.329071-.2844429-.7308273-.5130348-1.1977463-.6774788-.4706955-.1671295-1.0077972-.2517433-1.5958099-.2517433-.5905304 0-1.1265335.0846138-1.5958939.2517433-.4669189.164444-.8698502.3930359-1.1989899.6774788-.3254547.2842827-.5794525.6182022-.7524567.9931259-.174263.3763542-.262558.7865067-.262558 1.2183685 0 .4320335.088295.8420982.262558 1.2171936.1730042.3762665.427002.7101898.7524567.9944649.3291397.2844429.7320709.5129585 1.1989899.6787491.4693604.165699 1.0053635.2504768 1.5958939.2504768.5880127 0 1.1251144-.0847778 1.5958099-.2504768.4669189-.1657906.8686752-.3943062 1.1977463-.6787491.3242722-.2842751.5783539-.6181984.752449-.9932938.1754303-.3762665.2625504-.7863312.2625504-1.2183647 0-.4318619-.0871201-.8420143-.2625504-1.215847-.1740952-.3774452-.4281769-.7113647-.752449-.9956474"/><path d="m61.5949059 32.2538376h-5.6634064v-2.2213001h-1.3551445v8.1387959h1.3551445v-4.8128357h5.6634064v4.8128357h1.359745v-8.1387959h-1.359745z"/><path d="m154.3878326 19.2995377c-.2404327-.5309238-.6014862-.9903316-1.0696106-1.3659744-.473999-.3781662-1.0705566-.6730728-1.7743225-.8774662-1.0832367-.3148556-2.4652557-.3805046-3.9798126-.2350044-.5273895.0520115-1.0442505.1075592-1.5493469.1683483-.5080719.0617962-.9927216.1177845-1.4521942.1692944-.4671173.0511303-.8827209.0769463-1.2389069.0769463-.907135 0-1.5952454-.1615314-2.0478363-.4822578-.4700775-.3308887-.7075958-.7654886-.7075958-1.2915516 0-.2680826.0720062-.5402021.2160645-.8112516.1470032-.2735109.4058228-.5196905.7668762-.7328568.353363-.2083035.829361-.3804998 1.41716-.5129328.585968-.1308537 1.337265-.1975746 2.2356873-.1975746.6268158 0 1.2545624.0359802 1.8618011.107564.6093903.0730314 1.2030487.1713142 1.7685699.2938957.5624847.1227121 1.1153107.2691565 1.63797.4385138.4749908.1528215.9226685.3202209 1.3382568.4963322l1.2789307-2.3528328c-.4954529-.2151194-1.0336304-.4166079-1.6040039-.5971375-.629715-.1990271-1.2886505-.3728027-1.9631195-.5129366-.674469-.1406355-1.3790894-.252553-2.0954132-.3299417-.717392-.0769463-1.4385681-.1167755-2.1413116-.1167755-.9732361 0-1.8521423.069561-2.6151733.2072945-.7601318.1377344-1.436554.3289938-2.0117798.567915-.5751801.2394228-1.0696106.5254927-1.4715729.8521557-.4000244.325079-.7319183.6817856-.9859772 1.0607758-.2520447.3767128-.4388885.7771626-.5537109 1.1888504-.1139374.4156637-.1733398.8390255-.1733398 1.2565203 0 .7076063.1460724 1.333909.4321442 1.8609171.2861328.5290298.6803284.976696 1.1679535 1.3294888.4905243.3558235 1.0608368.6268082 1.6993866.8054447 1.031601.2891006 2.1139679.3367596 3.376297.1844444.486557-.0578842.9790955-.1206894 1.4793396-.1883583.5013123-.0690556.9976501-.1318626 1.4881744-.1907578.4973602-.0573788.9752655-.0866032 1.4190826-.0866032 1.0335541 0 1.8151398.1785736 2.3232269.5324402.522644.3644695.7902985.869009.7902985 1.4968262 0 .3878899-.107132.7513485-.3153076 1.0813541-.208313.3289948-.541214.6131115-.9879303.845274-.4351044.2273064-1.0053558.4063854-1.6914978.5348377-.6794586.1280136-1.5135651.1917057-2.4789581.1917057-.8010254 0-1.5660706-.0491734-2.2755737-.1445522-.710495-.0958824-1.397644-.2374668-2.038147-.4174919-.6432953-.1816044-1.2739563-.406826-1.8734436-.6711216-.5577393-.2447891-1.1124725-.5211391-1.6536865-.8228645l-1.5641022 2.3766918c.5626068.3139725 1.1748352.604969 1.8210907.8681889.7036133.2871456 1.4530792.5353451 2.2308197.7397366.7707214.2038841 1.5951691.3654785 2.4487152.4773941.8496246.1104012 1.7304382.1674023 2.6181335.1674023 1.3450775 0 2.5820923-.1288967 3.6751251-.380125 1.0900574-.2501545 2.0311584-.6218853 2.8000641-1.1051502.7631378-.4782791 1.3577728-1.0734653 1.769455-1.7679386.40979-.6914463.6171417-1.4920921.6171417-2.3820591-.0000001-.6637999-.1227113-1.2705962-.3640901-1.8030363"/><path d="m128.5909729 17.6079273c-.1615295.3928127-.409729.7295704-.7357559 1.0040283-.3250732.2699757-.7319031.482193-1.2068939.6306572-.4729843.1464462-1.0287094.2213726-1.6545105.2213726h-5.1155853v-6.1034527h5.1155853c1.2613144 0 2.223877.2559614 2.8623581.7625217.6472015.5148907.976181 1.2507105.976181 2.1865654 0 .4734861-.0817413.9109861-.2413788 1.2983075m1.6526184-5.3106975c-.5732727-.4676104-1.3070679-.8311968-2.1840363-1.0817308-.8837204-.2501554-1.941658-.3767166-3.1475525-.3767166h-7.9740906v15.6742334h2.9403152v-4.5486794l5.2275009.0112972.0437469.0665321 2.9606934 4.47085h3.6022186l-3.4230804-5.0328312.176178-.067667c.5907135-.2253475 1.1094513-.5114822 1.5455017-.8520927.4350891-.339159.8020477-.7309589 1.0872192-1.1644859.2851257-.4321384.5002441-.9148998.6394348-1.4342098.1391144-.5211391.2082367-1.0773754.2082367-1.6521091 0-.8540468-.1411285-1.6298227-.4224091-2.3032169-.2793272-.6686593-.709503-1.2439557-1.2798765-1.7091733"/><path d="m100.8514709 19.2362423h9.1761398v-2.367981h-9.1761398v-3.4882841h10.3615799v-2.5411911h-13.300888v15.6742334h13.5159531v-2.5324783h-10.5766449v-4.7442989z"/><path d="m85.1748199 20.0898762-5.0065155-9.2516298h-3.318924l6.8694534 11.8283606v3.8459358h2.9402466v-3.8658848l.0214615-.0340843 6.7584229-11.7743273h-3.3218307z"/><path d="m63.4716606 16.7257233-5.8674393-5.886941h-3.0278663v15.6742315h2.9402542v-11.6886053l5.9550514 5.7335539 5.9540367-5.7335539v11.6886053h2.9397507v-15.6742315h-3.0268555z"/></g><path d="m3.0726213 11.6200104 19.9328041 9.4680805 19.9328651-9.4680805-19.9328651-8.637888z" fill="#d69b2d"/><path d="m16.0708351 33.4628906 6.9765015 3.4882202 6.9765053-3.4882202v11.2122231l-6.9765053 3.1144714-6.9765015-3.1144714z" fill="#d69b2d"/><path d="m23.0054436 21.0880966-19.9328041-9.4680786 19.9328041-8.6378918z" fill="#ffb719"/><path d="m16.0708351 33.4628906v11.2122231l6.9765015 3.1144714v-10.8384743z" fill="#ffb719"/><path d="m47.092762 7.9063759c0-.2249131.0420609-.4348783.1261864-.6300693.0837784-.1950173.198494-.3630939.3438034-.5040555.1453056-.1409616.3139038-.2520275.5061378-.3331981.1922379-.0811701.3966408-.1216683.6128654-.1216683.216568 0 .4209709.0404983.6132088.1216683.1918869.0811706.3608322.1922364.5061417.3331981.1449585.1409616.2596741.3090382.3437996.5040555.0837784.1951909.1258392.4051561.1258392.6300693 0 .2278681-.0420609.4385281-.1258392.6321554-.0841255.1938-.1988411.3610077-.3437996.5019693-.1453094.1409616-.3142548.2520275-.5061417.3331976-.1922379.081171-.3966408.1216688-.6132088.1216688-.2162247 0-.4206276-.0404978-.6128654-.1216688-.192234-.0811701-.3608322-.1922359-.5061378-.3331976-.1453094-.1409616-.260025-.3081694-.3438034-.5019693-.0841256-.1936274-.1261864-.4042873-.1261864-.6321554zm.2819252 0c0 .1936264.0340652.3731747.1025467.5382967.0684814.1651211.1609497.3081684.2777519.4293156.1168022.1209736.2548103.2163963.4143677.2860956.159214.0698719.330246.1046343.5124016.1046343.1821518 0 .3524895-.0347624.5106583-.1046343.1578217-.0696993.2961769-.165122.4143677-.2860956.1178436-.1211472.2113571-.2641945.2794914-.4293156.0684814-.165122.1025505-.3446703.1025505-.5382967 0-.1906719-.0340691-.369525-.1025505-.536037-.0681343-.1666861-.1616478-.3104286-.2794914-.4314017-.1181908-.1211472-.256546-.2163963-.4143677-.2862687-.1581688-.0696988-.3285065-.1046352-.5106583-.1046352-.1821556 0-.3531876.0349364-.5124016.1046352-.1595574.0698724-.2975655.1651215-.4143677.2862687-.1168022.1209731-.2092705.2647157-.2777519.4314017-.0684815.166512-.1025467.3453651-.1025467.536037zm.7004623-.9311123h.7008095c.4327927 0 .6490135.1765933.6490135.5296059 0 .1680765-.0469284.2911358-.1407852.369525-.0942078.0783892-.21101.1246233-.3504066.1387024l.5339508.82022h-.3031273l-.504055-.7988415h-.3034782v.7988415h-.2819214v-1.8580533zm.2819214.8285632h.2906151c.0625725 0 .1237526-.0020857.1835442-.0064311.0597916-.0041718.1126328-.0163383.1581688-.0361528.0455399-.0199885.0823898-.0512748.1108932-.0940328.0285072-.0427575.0427589-.1011586.0427589-.1752024 0-.0625725-.0128632-.113152-.0382385-.1515646-.0257263-.0384126-.058403-.0676126-.0983772-.0876012-.039978-.0198145-.0841255-.0326767-.1324463-.0384126s-.0966377-.0085168-.1453056-.0085168h-.3716125v.5979143z" fill="#0f1822"/></svg>